<svg xmlns="http://www.w3.org/2000/svg" viewBox="0 0 1024 1024" width="1024" height="1024">
  <g transform="translate(-28.8,-63.5) scale(33.8)">
    <path d="M 9.700,27.000 L 9.700,26.141 L 9.700,25.282 L 9.700,24.423 L 9.700,23.564 L 9.700,22.705 L 9.700,21.845 L 9.700,20.986 L 9.700,20.127 L 9.700,19.268 L 9.700,18.409 L 9.700,17.550 L 9.700,17.550 L 9.710,17.190 L 9.741,16.832 L 9.792,16.476 L 9.864,16.123 L 9.955,15.775 L 10.066,15.433 L 10.197,15.098 L 10.346,14.770 L 10.514,14.452 L 10.700,14.144 L 10.903,13.847 L 11.123,13.562 L 11.359,13.290 L 11.609,13.032 L 11.874,12.789 L 12.153,12.561 L 12.444,12.350 L 12.747,12.155 L 13.060,11.978 L 13.383,11.819 L 13.714,11.679 L 14.053,11.558 L 14.398,11.457 L 14.749,11.375 L 15.103,11.314 L 15.461,11.273 L 15.820,11.253 L 16.180,11.253 L 16.539,11.273 L 16.897,11.314 L 17.251,11.375 L 17.602,11.457 L 17.947,11.558 L 18.286,11.679 L 18.617,11.819 L 18.940,11.978 L 19.253,12.155 L 19.556,12.350 L 19.847,12.561 L 20.126,12.789 L 20.391,13.032 L 20.641,13.290 L 20.877,13.562 L 21.097,13.847 L 21.300,14.144 L 21.486,14.452 L 21.654,14.770 L 21.803,15.098 L 21.934,15.433 L 22.045,15.775 L 22.136,16.123 L 22.208,16.476 L 22.259,16.832 L 22.290,17.190 L 22.300,17.550 L 22.300,17.550 L 22.300,18.409 L 22.300,19.268 L 22.300,20.127 L 22.300,20.986 L 22.300,21.845 L 22.300,22.705 L 22.300,23.564 L 22.300,24.423 L 22.300,25.282 L 22.300,26.141 L 22.300,27.000 Z" fill="#efe9ff"/>
    <path d="M 10.750,17.565 L 10.759,17.250 L 10.785,16.952 L 10.827,16.655 L 10.887,16.361 L 10.963,16.071 L 11.056,15.786 L 11.164,15.506 L 11.289,15.234 L 11.429,14.969 L 11.584,14.712 L 11.753,14.464 L 11.936,14.227 L 12.132,14.000 L 12.341,13.785 L 12.562,13.583 L 12.794,13.393 L 13.037,13.217 L 13.289,13.055 L 13.550,12.907 L 13.819,12.775 L 14.095,12.658 L 14.378,12.557 L 14.665,12.473 L 14.957,12.405 L 15.253,12.354 L 15.551,12.320 L 15.850,12.303 L 16.150,12.303 L 16.449,12.320 L 16.747,12.354 L 17.043,12.405 L 17.335,12.473 L 17.622,12.557 L 17.905,12.658 L 18.181,12.775 L 18.450,12.907 L 18.711,13.055 L 18.963,13.217 L 19.206,13.393 L 19.438,13.583 L 19.659,13.785 L 19.868,14.000 L 20.064,14.227 L 20.247,14.464 L 20.416,14.712 L 20.571,14.969 L 20.711,15.234 L 20.836,15.506 L 20.944,15.786 L 21.037,16.071 L 21.113,16.361 L 21.173,16.655 L 21.215,16.952 L 21.241,17.250 L 21.250,17.565 L 21.250,27.000 L 21.255,27.103 L 21.270,27.205 L 21.295,27.305 L 21.330,27.402 L 21.374,27.495 L 21.427,27.583 L 21.488,27.666 L 21.558,27.742 L 21.634,27.812 L 21.717,27.873 L 21.805,27.926 L 21.898,27.970 L 21.995,28.005 L 22.095,28.030 L 22.197,28.045 L 22.300,28.050 L 22.403,28.045 L 22.505,28.030 L 22.605,28.005 L 22.702,27.970 L 22.795,27.926 L 22.883,27.873 L 22.966,27.812 L 23.042,27.742 L 23.112,27.666 L 23.173,27.583 L 23.226,27.495 L 23.270,27.402 L 23.305,27.305 L 23.330,27.205 L 23.345,27.103 L 23.350,27.000 L 23.350,17.550 L 23.350,17.520 L 23.339,17.160 L 23.336,17.100 L 23.305,16.742 L 23.298,16.682 L 23.247,16.326 L 23.237,16.267 L 23.165,15.915 L 23.152,15.856 L 23.060,15.508 L 23.043,15.451 L 22.932,15.108 L 22.912,15.052 L 22.782,14.717 L 22.758,14.661 L 22.609,14.334 L 22.582,14.280 L 22.414,13.962 L 22.385,13.910 L 22.199,13.602 L 22.167,13.551 L 21.964,13.254 L 21.928,13.206 L 21.709,12.921 L 21.671,12.874 L 21.435,12.602 L 21.394,12.558 L 21.144,12.300 L 21.101,12.258 L 20.836,12.015 L 20.790,11.976 L 20.512,11.748 L 20.464,11.712 L 20.173,11.500 L 20.124,11.466 L 19.821,11.272 L 19.770,11.241 L 19.456,11.064 L 19.403,11.036 L 19.080,10.877 L 19.026,10.852 L 18.694,10.712 L 18.639,10.690 L 18.300,10.569 L 18.243,10.551 L 17.897,10.450 L 17.839,10.434 L 17.489,10.353 L 17.430,10.341 L 17.076,10.280 L 17.016,10.271 L 16.659,10.230 L 16.599,10.225 L 16.240,10.204 L 16.180,10.203 L 15.820,10.203 L 15.760,10.204 L 15.401,10.225 L 15.341,10.230 L 14.984,10.271 L 14.924,10.280 L 14.570,10.341 L 14.511,10.353 L 14.161,10.434 L 14.103,10.450 L 13.757,10.551 L 13.700,10.569 L 13.361,10.690 L 13.306,10.712 L 12.974,10.852 L 12.920,10.877 L 12.597,11.036 L 12.544,11.064 L 12.230,11.241 L 12.179,11.272 L 11.876,11.466 L 11.827,11.500 L 11.536,11.712 L 11.488,11.748 L 11.210,11.976 L 11.164,12.015 L 10.899,12.258 L 10.856,12.300 L 10.606,12.558 L 10.565,12.602 L 10.329,12.874 L 10.291,12.921 L 10.072,13.206 L 10.036,13.254 L 9.833,13.551 L 9.801,13.602 L 9.615,13.910 L 9.586,13.962 L 9.418,14.280 L 9.391,14.334 L 9.242,14.661 L 9.218,14.717 L 9.088,15.052 L 9.068,15.108 L 8.957,15.451 L 8.940,15.508 L 8.848,15.856 L 8.835,15.915 L 8.763,16.267 L 8.753,16.326 L 8.702,16.682 L 8.695,16.742 L 8.664,17.100 L 8.661,17.160 L 8.650,17.520 L 8.650,17.550 L 8.650,27.000 L 8.655,27.103 L 8.670,27.205 L 8.695,27.305 L 8.730,27.402 L 8.774,27.495 L 8.827,27.583 L 8.888,27.666 L 8.958,27.742 L 9.034,27.812 L 9.117,27.873 L 9.205,27.926 L 9.298,27.970 L 9.395,28.005 L 9.495,28.030 L 9.597,28.045 L 9.700,28.050 L 9.803,28.045 L 9.905,28.030 L 10.005,28.005 L 10.102,27.970 L 10.195,27.926 L 10.283,27.873 L 10.366,27.812 L 10.442,27.742 L 10.512,27.666 L 10.573,27.583 L 10.626,27.495 L 10.670,27.402 L 10.705,27.305 L 10.730,27.205 L 10.745,27.103 L 10.750,27.000 L 10.750,17.565 Z" fill="#31265e" fill-rule="evenodd"/>
    <path d="M 14.950,21.771 L 14.954,21.666 L 14.964,21.582 L 14.981,21.499 L 15.005,21.418 L 15.035,21.339 L 15.071,21.262 L 15.113,21.189 L 15.161,21.120 L 15.215,21.054 L 15.273,20.993 L 15.336,20.937 L 15.404,20.887 L 15.475,20.841 L 15.550,20.802 L 15.628,20.769 L 15.708,20.742 L 15.790,20.722 L 15.874,20.709 L 15.958,20.702 L 16.042,20.702 L 16.126,20.709 L 16.210,20.722 L 16.292,20.742 L 16.372,20.769 L 16.450,20.802 L 16.525,20.841 L 16.596,20.887 L 16.664,20.937 L 16.727,20.993 L 16.785,21.054 L 16.839,21.120 L 16.887,21.189 L 16.929,21.262 L 16.965,21.339 L 16.995,21.418 L 17.019,21.499 L 17.036,21.582 L 17.046,21.666 L 17.050,21.771 L 17.050,27.000 L 17.055,27.103 L 17.070,27.205 L 17.095,27.305 L 17.130,27.402 L 17.174,27.495 L 17.227,27.583 L 17.288,27.666 L 17.358,27.742 L 17.434,27.812 L 17.517,27.873 L 17.605,27.926 L 17.698,27.970 L 17.795,28.005 L 17.895,28.030 L 17.997,28.045 L 18.100,28.050 L 18.203,28.045 L 18.305,28.030 L 18.405,28.005 L 18.502,27.970 L 18.595,27.926 L 18.683,27.873 L 18.766,27.812 L 18.842,27.742 L 18.912,27.666 L 18.973,27.583 L 19.026,27.495 L 19.070,27.402 L 19.105,27.305 L 19.130,27.205 L 19.145,27.103 L 19.150,27.000 L 19.150,21.750 L 19.149,21.708 L 19.142,21.539 L 19.136,21.454 L 19.115,21.287 L 19.102,21.203 L 19.068,21.037 L 19.048,20.955 L 19.000,20.793 L 18.974,20.713 L 18.914,20.555 L 18.881,20.477 L 18.808,20.324 L 18.769,20.249 L 18.684,20.103 L 18.639,20.031 L 18.543,19.892 L 18.492,19.824 L 18.385,19.693 L 18.329,19.630 L 18.212,19.508 L 18.151,19.450 L 18.024,19.337 L 17.959,19.284 L 17.824,19.182 L 17.754,19.134 L 17.611,19.044 L 17.538,19.002 L 17.388,18.923 L 17.312,18.887 L 17.156,18.820 L 17.077,18.791 L 16.917,18.737 L 16.836,18.713 L 16.671,18.673 L 16.588,18.656 L 16.422,18.629 L 16.338,18.619 L 16.169,18.605 L 16.085,18.602 L 15.915,18.602 L 15.831,18.605 L 15.662,18.619 L 15.578,18.629 L 15.412,18.656 L 15.329,18.673 L 15.164,18.713 L 15.083,18.737 L 14.923,18.791 L 14.844,18.820 L 14.688,18.887 L 14.612,18.923 L 14.462,19.002 L 14.389,19.044 L 14.246,19.134 L 14.176,19.182 L 14.041,19.284 L 13.976,19.337 L 13.849,19.450 L 13.788,19.508 L 13.671,19.630 L 13.615,19.693 L 13.508,19.824 L 13.457,19.892 L 13.361,20.031 L 13.316,20.103 L 13.231,20.249 L 13.192,20.324 L 13.119,20.477 L 13.086,20.555 L 13.026,20.713 L 13.000,20.793 L 12.952,20.955 L 12.932,21.037 L 12.898,21.203 L 12.885,21.287 L 12.864,21.454 L 12.858,21.539 L 12.851,21.708 L 12.850,21.750 L 12.850,27.000 L 12.855,27.103 L 12.870,27.205 L 12.895,27.305 L 12.930,27.402 L 12.974,27.495 L 13.027,27.583 L 13.088,27.666 L 13.158,27.742 L 13.234,27.812 L 13.317,27.873 L 13.405,27.926 L 13.498,27.970 L 13.595,28.005 L 13.695,28.030 L 13.797,28.045 L 13.900,28.050 L 14.003,28.045 L 14.105,28.030 L 14.205,28.005 L 14.302,27.970 L 14.395,27.926 L 14.483,27.873 L 14.566,27.812 L 14.642,27.742 L 14.712,27.666 L 14.773,27.583 L 14.826,27.495 L 14.870,27.402 L 14.905,27.305 L 14.930,27.205 L 14.945,27.103 L 14.950,27.000 L 14.950,21.771 Z" fill="#31265e" fill-rule="evenodd"/>
  </g>
</svg>
