<svg xmlns="http://www.w3.org/2000/svg" viewBox="0 0 1024 1024" width="1024" height="1024">
  <g transform="translate(-28.8,-63.5) scale(33.8)">
    <path d="M 6.766,14.644 L 7.029,14.189 L 7.291,13.734 L 7.554,13.280 L 7.812,12.832 L 7.959,12.586 L 8.109,12.351 L 8.266,12.120 L 8.429,11.895 L 8.599,11.674 L 8.776,11.458 L 8.959,11.248 L 9.148,11.043 L 9.343,10.843 L 9.543,10.650 L 9.750,10.462 L 9.961,10.281 L 10.178,10.106 L 10.400,9.938 L 10.627,9.776 L 10.859,9.621 L 11.095,9.473 L 11.336,9.332 L 11.580,9.198 L 11.828,9.071 L 12.080,8.951 L 12.335,8.840 L 12.594,8.735 L 12.855,8.639 L 13.120,8.550 L 13.386,8.469 L 13.655,8.396 L 13.926,8.330 L 14.199,8.273 L 14.474,8.224 L 14.749,8.183 L 15.026,8.150 L 15.304,8.126 L 15.582,8.109 L 15.861,8.101 L 16.139,8.101 L 16.418,8.109 L 16.696,8.126 L 16.974,8.150 L 17.251,8.183 L 17.526,8.224 L 17.801,8.273 L 18.074,8.330 L 18.345,8.396 L 18.614,8.469 L 18.880,8.550 L 19.145,8.639 L 19.406,8.735 L 19.665,8.840 L 19.920,8.951 L 20.172,9.071 L 20.420,9.198 L 20.664,9.332 L 20.905,9.473 L 21.141,9.621 L 21.373,9.776 L 21.600,9.938 L 21.822,10.106 L 22.039,10.281 L 22.250,10.462 L 22.457,10.650 L 22.657,10.843 L 22.852,11.043 L 23.041,11.248 L 23.224,11.458 L 23.401,11.674 L 23.571,11.895 L 23.734,12.120 L 23.891,12.351 L 24.041,12.586 L 24.188,12.832 L 24.446,13.280 L 24.709,13.734 L 24.971,14.189 L 25.234,14.644 L 25.496,15.098 L 25.759,15.553 L 25.815,15.640 L 25.879,15.720 L 25.950,15.794 L 26.029,15.861 L 26.114,15.920 L 26.204,15.970 L 26.298,16.011 L 26.397,16.042 L 26.497,16.064 L 26.600,16.076 L 26.703,16.077 L 26.805,16.069 L 26.907,16.051 L 27.006,16.022 L 27.102,15.984 L 27.193,15.937 L 27.280,15.881 L 27.361,15.817 L 27.435,15.746 L 27.501,15.667 L 27.560,15.582 L 27.610,15.492 L 27.651,15.398 L 27.682,15.300 L 27.704,15.199 L 27.716,15.097 L 27.718,14.994 L 27.709,14.891 L 27.691,14.790 L 27.663,14.690 L 27.625,14.595 L 27.578,14.503 L 27.315,14.048 L 27.053,13.594 L 26.790,13.139 L 26.528,12.684 L 26.265,12.230 L 26.003,11.775 L 25.995,11.762 L 25.836,11.496 L 25.820,11.469 L 25.653,11.208 L 25.636,11.182 L 25.462,10.926 L 25.444,10.901 L 25.262,10.650 L 25.244,10.625 L 25.055,10.380 L 25.036,10.356 L 24.839,10.116 L 24.819,10.092 L 24.616,9.859 L 24.596,9.835 L 24.386,9.608 L 24.364,9.585 L 24.148,9.364 L 24.126,9.342 L 23.903,9.127 L 23.880,9.106 L 23.651,8.898 L 23.628,8.877 L 23.392,8.676 L 23.369,8.656 L 23.127,8.462 L 23.103,8.443 L 22.856,8.255 L 22.831,8.237 L 22.579,8.057 L 22.554,8.040 L 22.296,7.867 L 22.270,7.850 L 22.008,7.686 L 21.982,7.670 L 21.714,7.513 L 21.688,7.498 L 21.416,7.349 L 21.389,7.334 L 21.113,7.193 L 21.085,7.180 L 20.805,7.047 L 20.777,7.034 L 20.493,6.910 L 20.465,6.898 L 20.177,6.782 L 20.149,6.771 L 19.858,6.663 L 19.829,6.653 L 19.535,6.554 L 19.506,6.545 L 19.209,6.455 L 19.180,6.446 L 18.881,6.365 L 18.851,6.357 L 18.550,6.285 L 18.519,6.278 L 18.216,6.215 L 18.186,6.209 L 17.881,6.154 L 17.850,6.149 L 17.544,6.104 L 17.513,6.100 L 17.206,6.063 L 17.175,6.060 L 16.866,6.033 L 16.836,6.030 L 16.526,6.012 L 16.495,6.011 L 16.186,6.002 L 16.155,6.001 L 15.845,6.001 L 15.814,6.002 L 15.505,6.011 L 15.474,6.012 L 15.164,6.030 L 15.134,6.033 L 14.825,6.060 L 14.794,6.063 L 14.487,6.100 L 14.456,6.104 L 14.150,6.149 L 14.119,6.154 L 13.814,6.209 L 13.784,6.215 L 13.481,6.278 L 13.450,6.285 L 13.149,6.357 L 13.119,6.365 L 12.820,6.446 L 12.791,6.455 L 12.494,6.545 L 12.465,6.554 L 12.171,6.653 L 12.142,6.663 L 11.851,6.771 L 11.823,6.782 L 11.535,6.898 L 11.507,6.910 L 11.223,7.034 L 11.195,7.047 L 10.915,7.180 L 10.887,7.193 L 10.611,7.334 L 10.584,7.349 L 10.312,7.498 L 10.286,7.513 L 10.018,7.670 L 9.992,7.686 L 9.730,7.850 L 9.704,7.867 L 9.446,8.040 L 9.421,8.057 L 9.169,8.237 L 9.144,8.255 L 8.897,8.443 L 8.873,8.462 L 8.631,8.656 L 8.608,8.676 L 8.372,8.877 L 8.349,8.898 L 8.120,9.106 L 8.097,9.127 L 7.874,9.342 L 7.852,9.364 L 7.636,9.585 L 7.614,9.608 L 7.404,9.835 L 7.384,9.859 L 7.181,10.092 L 7.161,10.116 L 6.964,10.356 L 6.945,10.380 L 6.756,10.625 L 6.738,10.650 L 6.556,10.901 L 6.538,10.926 L 6.364,11.182 L 6.347,11.208 L 6.180,11.469 L 6.164,11.496 L 6.005,11.762 L 5.997,11.775 L 5.735,12.230 L 5.472,12.684 L 5.210,13.139 L 4.947,13.594 L 4.422,14.503 L 4.375,14.595 L 4.337,14.690 L 4.309,14.790 L 4.291,14.891 L 4.282,14.994 L 4.284,15.097 L 4.296,15.199 L 4.318,15.300 L 4.349,15.398 L 4.390,15.492 L 4.440,15.582 L 4.499,15.667 L 4.565,15.746 L 4.639,15.817 L 4.720,15.881 L 4.807,15.937 L 4.898,15.984 L 4.994,16.022 L 5.093,16.051 L 5.195,16.069 L 5.297,16.077 L 5.400,16.076 L 5.503,16.064 L 5.603,16.042 L 5.702,16.011 L 5.796,15.970 L 5.886,15.920 L 5.971,15.861 L 6.050,15.794 L 6.121,15.720 L 6.185,15.640 L 6.241,15.553 L 6.766,14.644 Z" fill="#31265e" fill-rule="evenodd"/>
  </g>
</svg>
